<?xml version="1.0" standalone="no"?>
<!DOCTYPE svg PUBLIC "-//W3C//DTD SVG 20010904//EN"
 "http://www.w3.org/TR/2001/REC-SVG-20010904/DTD/svg10.dtd">
<svg version="1.0" xmlns="http://www.w3.org/2000/svg"
 width="1200.000000pt" height="1200.000000pt" viewBox="0 0 1200.000000 1200.000000"
 preserveAspectRatio="xMidYMid meet">
<metadata>
Created by potrace 1.11, written by Peter Selinger 2001-2013
</metadata>
<g transform="translate(0.000000,1200.000000) scale(0.100000,-0.100000)"
fill="#000000" stroke="none">
<path d="M3235 10864 c-536 -55 -877 -140 -1198 -300 -267 -133 -452 -312
-507 -490 -19 -62 -20 -92 -20 -509 0 -414 1 -447 20 -507 19 -61 85 -177 109
-192 8 -5 11 -144 11 -469 0 -510 1 -525 63 -641 19 -38 65 -95 119 -149 l88
-89 0 -289 c0 -342 1 -338 -118 -455 -56 -56 -94 -83 -159 -114 -262 -125
-414 -284 -480 -505 -16 -56 -18 -166 -23 -1850 -3 -984 -2 -1817 1 -1851 42
-419 598 -789 1444 -959 1071 -216 2337 -54 3000 384 198 130 344 295 400 452
19 51 20 92 25 704 3 358 3 1192 0 1855 -6 1345 0 1243 -77 1398 -43 88 -152
208 -245 271 -35 24 -119 70 -188 103 -148 71 -195 107 -235 179 l-30 54 -3
311 -3 311 88 89 c93 94 144 175 169 268 11 40 14 155 14 518 0 329 3 469 11
474 24 15 90 131 109 192 19 60 20 93 20 507 0 510 -1 514 -91 649 -175 262
-593 473 -1159 586 -254 50 -387 62 -760 65 -195 1 -373 1 -395 -1z m845 -49
c608 -75 1086 -254 1343 -504 248 -240 250 -509 5 -748 -260 -253 -740 -433
-1363 -509 -178 -21 -611 -30 -805 -15 -995 75 -1720 453 -1720 896 0 433 696
806 1665 894 159 15 717 6 875 -14z m-2385 -1270 c256 -255 712 -432 1335
-517 147 -20 206 -23 545 -23 339 0 398 3 545 23 501 68 884 193 1170 380 108
71 235 198 283 282 l37 65 0 -305 c0 -336 -4 -362 -61 -471 -42 -80 -177 -218
-278 -284 -286 -188 -705 -320 -1201 -380 -184 -22 -605 -30 -805 -16 -908 66
-1603 389 -1711 795 -10 38 -14 130 -14 356 l0 305 38 -65 c20 -36 73 -101
117 -145z m173 -884 c128 -86 369 -193 572 -254 205 -61 491 -115 695 -133
249 -20 621 -26 765 -10 25 3 79 8 120 11 41 3 147 18 235 31 492 78 898 236
1148 447 l65 56 0 -417 c0 -233 -4 -444 -10 -477 -15 -91 -59 -173 -139 -259
-530 -567 -2186 -701 -3124 -252 -156 74 -247 137 -345 235 -165 167 -170 187
-170 749 l0 423 63 -54 c35 -30 91 -73 125 -96z m164 -1209 c202 -123 454
-214 773 -277 277 -55 430 -69 765 -69 301 -1 411 7 650 45 354 57 727 184
919 313 29 20 55 36 57 36 2 0 4 -130 4 -288 0 -353 3 -367 93 -457 39 -38 85
-72 122 -89 202 -93 315 -165 391 -247 41 -44 94 -130 123 -198 22 -52 22 -59
12 -150 -35 -287 -94 -472 -208 -643 l-48 -73 -6 210 c-5 179 -10 220 -29 280
-61 191 -161 297 -385 411 -71 36 -137 72 -146 80 -23 21 -26 18 -32 -27 -14
-107 -120 -247 -254 -338 -209 -140 -526 -242 -894 -287 -181 -23 -547 -23
-728 0 -651 80 -1117 339 -1148 639 l-6 56 -51 -43 c-28 -24 -96 -66 -151 -95
-217 -112 -336 -261 -371 -464 -18 -104 -21 -3132 -3 -3199 51 -195 266 -398
571 -542 276 -131 636 -226 1035 -273 187 -22 745 -25 928 -5 428 47 816 148
1100 287 176 86 273 152 380 258 50 49 115 109 145 132 78 60 231 222 265 279
15 26 38 73 51 104 l24 57 0 -220 c0 -291 -18 -355 -140 -509 -277 -349 -932
-606 -1765 -692 -238 -25 -762 -25 -1000 0 -988 103 -1712 443 -1878 884 l-22
57 -3 1795 c-2 1317 0 1815 8 1870 40 261 178 427 468 566 77 36 107 58 176
126 129 129 126 119 126 462 0 158 3 285 8 283 4 -3 37 -23 74 -45z m-45
-1340 c94 -49 166 -161 166 -258 0 -55 -13 -84 -60 -134 -13 -14 -37 -40 -54
-59 -27 -30 -34 -33 -70 -28 -55 7 -104 48 -138 115 -16 31 -43 84 -60 116
-96 181 40 338 216 248z m3993 -1569 c0 -998 -4 -1520 -11 -1563 -25 -154 -81
-262 -203 -389 -327 -339 -853 -546 -1596 -628 -203 -22 -743 -25 -945 -5
-582 58 -1041 183 -1270 347 -127 90 -215 220 -249 365 -22 93 -24 1748 -2
1862 28 145 90 253 167 294 l29 15 0 278 c0 234 2 281 15 291 21 18 64 4 70
-23 3 -12 5 -138 3 -279 l-3 -256 40 -7 c22 -3 102 -26 177 -50 568 -183 1373
-248 2025 -165 850 109 1425 455 1640 988 43 106 80 252 89 350 4 39 11 72 15
72 5 0 9 -666 9 -1497z m-802 735 c2 -329 2 -337 -18 -348 -20 -11 -20 -8 -20
340 0 329 1 351 18 348 16 -3 17 -28 20 -340z m-3450 -2764 c73 -144 184 -241
387 -339 287 -138 615 -222 1035 -267 191 -19 687 -17 890 5 238 26 489 63
610 91 208 48 181 33 -55 -29 -449 -119 -1042 -153 -1565 -89 -617 75 -1103
275 -1281 528 -53 75 -80 146 -78 210 l1 41 12 -45 c7 -25 27 -72 44 -106z"/>
<path d="M4940 6686 c8 -7 58 -27 110 -45 277 -94 524 -250 710 -448 94 -100
122 -105 33 -6 -181 205 -440 370 -737 472 -131 46 -136 47 -116 27z"/>
<path d="M2234 4421 c-74 -45 -74 -217 1 -316 44 -57 142 -91 200 -69 16 6 45
54 45 73 0 6 -18 20 -40 31 -31 16 -40 17 -40 7 0 -8 -9 -22 -21 -33 -19 -17
-23 -17 -47 -3 -39 21 -55 63 -55 142 0 55 4 72 20 88 17 17 24 18 45 8 25
-11 48 -46 48 -73 0 -14 30 -26 68 -26 20 0 22 4 17 23 -25 80 -75 135 -144
156 -51 15 -61 14 -97 -8z"/>
<path d="M5095 4413 c-65 -34 -105 -88 -105 -142 0 -45 28 -56 94 -37 68 20
68 20 64 -6 -4 -29 -73 -65 -93 -48 -11 9 -21 8 -45 -6 -32 -20 -37 -33 -18
-52 36 -36 166 16 207 81 25 41 28 99 5 118 -13 11 -26 10 -75 -3 -69 -19 -87
-7 -44 29 19 17 35 23 54 19 17 -4 34 1 51 13 20 16 22 21 11 35 -17 20 -67
20 -106 -1z"/>
<path d="M4893 4328 l-33 -11 -1 -86 c0 -47 -2 -95 -4 -105 -5 -28 -41 -60
-59 -53 -13 5 -16 25 -16 112 0 58 -3 105 -7 104 -5 0 -23 -6 -41 -13 l-34
-12 1 -118 c0 -75 4 -123 12 -132 21 -25 75 -17 114 17 25 22 35 27 35 16 0
-14 5 -14 38 -3 l37 13 3 141 c1 78 -1 142 -5 141 -5 -1 -23 -6 -40 -11z"/>
<path d="M4338 4293 c-13 -3 -18 -15 -18 -43 l0 -38 38 9 c20 5 40 9 45 9 4 0
7 16 7 35 0 32 -3 35 -27 34 -16 -1 -36 -3 -45 -6z"/>
<path d="M4624 4250 c-12 -4 -30 -20 -42 -34 -24 -31 -32 -33 -25 -5 5 19 3
20 -33 13 -22 -3 -42 -9 -46 -11 -5 -2 -8 -67 -8 -144 0 -76 3 -139 8 -139 4
0 24 5 45 11 l37 10 0 89 c0 86 1 89 31 114 17 14 39 26 50 26 16 0 19 7 19
40 0 42 -2 44 -36 30z"/>
<path d="M2573 4234 c-123 -61 -42 -284 104 -284 74 0 108 27 118 95 13 80
-49 171 -132 194 -49 14 -52 14 -90 -5z m111 -76 c16 -22 22 -102 10 -132 -9
-23 -50 -19 -68 6 -16 22 -22 102 -10 132 9 23 50 19 68 -6z"/>
<path d="M2848 4060 c-2 -78 -1 -143 2 -145 3 -2 23 -5 45 -6 l40 -4 0 84 c1
76 3 85 25 103 17 14 33 18 53 14 27 -6 28 -5 25 32 -2 30 -7 38 -27 40 -13 2
-36 -6 -52 -17 l-29 -22 0 26 c0 17 -5 25 -17 25 -10 0 -28 3 -40 6 -22 6 -22
5 -25 -136z"/>
<path d="M4348 4193 l-28 -4 0 -144 0 -144 33 5 c17 3 38 7 45 10 9 2 12 40
12 144 0 154 5 143 -62 133z"/>
<path d="M4238 4173 c-24 -4 -30 -13 -55 -88 -15 -47 -29 -82 -32 -79 -3 3
-17 38 -31 77 l-25 72 -40 -3 c-22 -2 -42 -6 -45 -8 -5 -5 12 -56 62 -186 l30
-78 38 0 c27 0 40 5 45 18 21 52 95 266 95 273 0 5 -3 8 -7 8 -5 -1 -20 -4
-35 -6z"/>
<path d="M3135 4151 c-43 -19 -68 -59 -72 -113 -8 -101 54 -168 154 -168 47 0
58 4 91 34 35 32 37 38 37 94 0 65 -16 97 -67 135 -29 22 -111 32 -143 18z
m99 -73 c21 -30 21 -121 0 -142 -20 -20 -27 -20 -55 3 -19 15 -23 28 -23 73
-1 81 42 118 78 66z"/>
<path d="M3400 4001 l0 -139 35 -6 c20 -4 40 -4 45 -1 6 3 10 51 10 106 0 96
1 100 25 111 26 12 57 -3 54 -26 -1 -6 -1 -53 0 -103 l1 -93 40 0 c25 0 40 5
41 13 1 10 0 133 -1 214 0 30 -38 63 -71 63 -32 0 -79 -19 -79 -32 0 -4 -4 -8
-10 -8 -5 0 -10 9 -10 20 0 17 -7 20 -40 20 l-40 0 0 -139z"/>
<path d="M3763 4120 c-28 -17 -53 -47 -53 -64 0 -16 74 -4 100 16 25 18 33 20
55 10 37 -17 31 -40 -12 -47 -66 -12 -105 -29 -129 -58 -69 -82 36 -166 134
-107 26 16 32 17 32 5 0 -11 12 -15 45 -15 l45 0 0 93 c0 103 -11 153 -37 173
-28 21 -141 18 -180 -6z m127 -152 c0 -31 -28 -58 -60 -58 -50 0 -46 50 5 70
37 15 55 11 55 -12z"/>
<path d="M2223 3783 c33 -115 65 -211 71 -215 27 -19 42 4 98 161 32 90 57
165 56 166 -2 2 -11 5 -22 7 -15 2 -26 -18 -65 -129 -42 -122 -61 -158 -61
-118 0 35 -84 311 -98 323 -39 31 -36 4 21 -195z"/>
<path d="M2503 3770 c-23 -10 -46 -43 -36 -54 10 -10 43 -7 43 4 0 18 47 22
84 6 30 -13 56 -46 56 -72 0 -2 -28 -2 -62 2 -75 7 -115 -6 -128 -41 -29 -77
81 -161 160 -122 29 15 30 15 30 -9 0 -17 6 -24 20 -24 19 0 20 7 20 103 0
116 -15 160 -65 188 -39 22 -94 30 -122 19z m138 -156 c14 -8 11 -47 -7 -72
-20 -29 -85 -31 -114 -2 -46 46 -6 95 68 86 24 -3 48 -8 53 -12z"/>
<path d="M3294 3745 c-9 -23 3 -45 26 -45 25 0 28 45 4 54 -22 8 -24 8 -30 -9z"/>
<path d="M2780 3685 c-31 -33 -40 -136 -17 -181 37 -71 119 -105 171 -71 30
20 43 56 25 68 -20 13 -29 11 -29 -6 0 -8 -11 -22 -24 -30 -65 -43 -132 58
-106 157 20 73 96 71 123 -3 12 -31 47 -41 47 -14 0 85 -133 140 -190 80z"/>
<path d="M3068 3664 c-79 -42 -77 -198 4 -257 38 -28 101 -27 131 2 31 28 40
58 20 65 -19 8 -33 -1 -33 -20 0 -20 -43 -38 -74 -30 -35 9 -56 54 -56 121 0
62 22 95 63 95 24 0 59 -31 70 -62 6 -18 28 -24 40 -12 14 14 -35 86 -68 100
-43 18 -63 17 -97 -2z"/>
<path d="M3300 3658 c-1 -2 -2 -66 -2 -143 -2 -137 -1 -140 20 -143 22 -3 22
-2 22 136 0 118 -2 141 -16 146 -17 6 -24 7 -24 4z"/>
<path d="M3427 3643 c-4 -3 -7 -66 -7 -140 l0 -133 25 0 c25 0 25 0 25 95 0
91 1 97 27 121 20 19 36 24 62 22 l36 -3 5 -120 c5 -115 6 -120 28 -123 22 -3
22 -2 22 118 0 117 -1 122 -26 147 -21 21 -32 25 -66 20 -22 -3 -51 -16 -64
-28 l-24 -22 0 26 c0 20 -5 27 -18 27 -10 0 -22 -3 -25 -7z"/>
<path d="M3774 3631 c-61 -37 -82 -152 -39 -217 23 -35 79 -57 123 -49 21 4
50 21 71 42 33 33 35 36 16 43 -14 5 -27 -1 -46 -22 -36 -38 -89 -39 -118 -2
-12 15 -21 37 -21 50 0 23 3 24 63 24 34 0 79 3 101 7 l38 6 -5 41 c-12 84
-107 124 -183 77z m101 -17 c17 -7 50 -62 42 -71 -3 -2 -39 -7 -81 -10 -67 -5
-76 -4 -76 11 0 10 13 31 29 47 29 28 53 35 86 23z"/>
<path d="M8165 10864 c-518 -51 -878 -141 -1196 -299 -269 -135 -453 -313
-509 -491 -19 -62 -20 -92 -20 -503 0 -257 5 -454 11 -480 13 -59 54 -142 95
-197 l34 -44 0 -458 c0 -505 2 -520 63 -636 19 -38 65 -95 119 -149 l88 -89 0
-289 c0 -342 1 -339 -117 -456 -56 -56 -92 -81 -159 -113 -136 -65 -236 -134
-317 -220 -91 -97 -141 -192 -168 -322 -18 -90 -19 -159 -19 -1895 l0 -1802
25 -78 c77 -244 351 -481 748 -647 898 -376 2264 -396 3213 -46 154 57 393
179 499 255 238 170 361 348 385 556 8 65 10 622 7 1834 -4 1903 0 1795 -61
1946 -35 86 -81 152 -153 223 -80 78 -151 124 -310 201 -141 69 -194 111 -235
187 -22 42 -23 52 -26 354 l-3 311 89 89 c72 73 97 106 133 178 l44 89 5 491
5 491 47 68 c87 124 88 133 88 646 0 488 0 487 -61 601 -43 81 -150 194 -255
269 -171 122 -464 248 -729 314 -348 87 -529 108 -965 112 -195 1 -373 1 -395
-1z m692 -35 c309 -25 596 -80 849 -164 674 -221 975 -595 771 -954 -17 -30
-61 -87 -98 -126 -411 -433 -1491 -656 -2484 -514 -442 63 -820 189 -1080 360
-96 63 -238 203 -282 279 -173 297 15 619 494 847 286 136 712 240 1113 272
155 12 570 13 717 0z m-2232 -1284 c282 -282 848 -480 1530 -536 211 -17 709
-6 905 20 493 67 878 193 1160 380 111 73 237 198 283 281 l37 65 0 -310 c0
-340 -2 -354 -62 -468 -41 -77 -177 -216 -274 -280 -330 -216 -810 -354 -1384
-398 -193 -15 -626 -6 -805 15 -834 101 -1418 397 -1529 775 -13 45 -16 110
-16 360 l0 306 38 -65 c20 -36 73 -101 117 -145z m214 -908 c264 -157 541
-252 928 -321 193 -34 234 -39 488 -55 112 -8 504 -5 570 3 17 2 66 7 110 10
238 20 612 97 810 166 254 90 471 206 603 325 l50 45 0 -427 c0 -236 -4 -450
-9 -476 -17 -94 -66 -176 -158 -267 -92 -92 -152 -135 -285 -206 -737 -392
-2081 -400 -2851 -16 -201 100 -372 248 -435 375 -44 92 -50 166 -50 613 l1
403 76 -63 c41 -35 110 -84 152 -109z m65 -1146 c12 -19 172 -106 279 -151
264 -112 568 -185 927 -222 185 -19 658 -16 840 6 465 55 842 168 1110 334
l65 40 5 -307 5 -306 27 -50 c44 -84 116 -143 237 -194 231 -98 395 -248 462
-424 l21 -56 -21 -155 c-68 -490 -254 -760 -723 -1047 -109 -67 -362 -162
-567 -214 -330 -82 -592 -110 -1026 -109 -345 0 -499 11 -797 55 l-148 22 -2
545 -3 544 -60 23 c-312 117 -528 316 -543 501 l-4 54 -47 -41 c-25 -23 -82
-59 -126 -81 -114 -58 -182 -107 -250 -180 -71 -75 -105 -135 -137 -238 l-23
-75 -5 -1545 c-3 -850 -2 -1570 3 -1600 4 -31 25 -92 49 -140 162 -331 741
-608 1478 -704 747 -98 1584 8 2114 268 178 87 274 153 381 259 49 49 117 111
151 138 116 92 239 231 283 320 23 45 41 88 41 95 0 8 3 14 8 14 11 0 4 -408
-9 -470 -24 -118 -107 -251 -226 -359 -326 -299 -925 -510 -1668 -587 -238
-25 -762 -25 -1000 0 -980 102 -1698 437 -1873 874 l-27 67 0 1835 c0 2062 -7
1880 76 2049 69 141 182 240 393 344 84 41 115 64 183 132 125 124 123 115
123 458 0 262 4 311 24 278z m-6 -1371 c96 -43 161 -121 183 -218 16 -66 0
-124 -45 -167 -17 -16 -39 -43 -49 -58 -53 -82 -174 -46 -222 65 -11 24 -31
61 -45 83 -50 76 -67 147 -50 202 32 100 128 139 228 93z m4012 -1579 c0
-1316 -2 -1509 -16 -1581 -28 -149 -75 -237 -190 -360 -257 -272 -665 -470
-1184 -574 -639 -128 -1440 -109 -2065 49 -438 111 -668 248 -770 460 -68 140
-66 108 -63 1103 l3 897 23 70 c31 91 61 143 111 188 75 67 165 72 326 17 277
-95 638 -164 1055 -201 199 -18 680 -15 875 5 1085 113 1717 542 1856 1258 10
54 19 114 19 133 0 19 5 35 10 35 7 0 10 -506 10 -1499z m-4000 860 c6 -12 10
-117 10 -270 l0 -251 -29 0 c-16 0 -36 -3 -45 -6 -14 -6 -16 21 -16 258 0 192
3 267 12 276 18 18 56 14 68 -7z m-253 -2886 c65 -125 193 -243 343 -317 251
-124 621 -223 1008 -270 233 -28 732 -31 1007 -5 289 28 585 78 745 127 91 28
109 24 25 -6 -675 -240 -1615 -268 -2337 -70 -429 118 -729 305 -826 516 -19
40 -26 75 -29 135 l-3 80 23 -75 c13 -41 33 -93 44 -115z"/>
<path d="M9870 6686 c8 -7 60 -28 115 -47 154 -52 374 -166 496 -258 58 -44
147 -124 198 -177 100 -106 136 -122 50 -23 -176 203 -444 376 -743 478 -132
46 -136 47 -116 27z"/>
<path d="M10014 6278 c-131 -465 -1152 -738 -2103 -562 -46 9 -130 29 -187 45
-116 32 -117 33 -110 20 3 -5 23 -12 43 -16 21 -4 52 -13 68 -20 30 -13 75
-25 107 -28 9 -1 16 -6 15 -12 -1 -6 21 -9 58 -8 42 2 56 -1 45 -8 -8 -5 -62
-9 -120 -8 -58 0 -115 0 -127 0 -22 -1 -23 -5 -23 -81 0 -47 -4 -80 -10 -80
-6 0 -9 -99 -8 -282 l2 -283 6 240 7 240 -4 -270 c-2 -148 -6 -309 -9 -357
l-5 -88 28 -2 c15 0 39 0 51 1 15 1 21 -2 17 -8 -3 -6 1 -11 10 -11 9 0 13 4
10 10 -3 5 10 9 32 8 46 -1 60 -8 42 -19 -10 -6 -8 -9 8 -9 16 0 21 4 17 15
-4 8 -2 15 2 15 13 -1 44 -26 39 -31 -2 -3 11 -3 30 -1 19 2 32 9 29 14 -3 5
-17 7 -29 4 -13 -3 -26 -3 -28 1 -8 13 47 12 62 0 11 -9 15 -9 18 1 3 6 9 12
15 12 6 0 8 -7 5 -14 -4 -9 2 -17 14 -21 24 -8 138 16 116 24 -9 3 26 7 78 8
52 1 95 -3 95 -8 0 -5 18 -9 40 -9 38 0 40 -2 40 -30 l0 -30 160 0 c136 0 160
2 160 15 0 9 9 15 24 15 13 0 43 3 68 6 33 5 49 2 59 -8 10 -11 22 -13 43 -7
16 5 39 6 50 4 12 -3 35 -1 51 5 26 8 24 9 -15 4 -28 -3 -40 -2 -32 4 24 16
-12 34 -53 26 -32 -6 -34 -8 -18 -20 17 -13 17 -13 1 -14 -10 0 -18 4 -18 9 0
5 -36 12 -80 16 -90 8 -109 25 -27 25 37 0 48 -3 37 -10 -11 -7 -4 -10 28 -10
23 0 42 5 42 11 0 6 32 9 90 8 50 -2 85 -6 78 -11 -7 -4 -22 -8 -33 -9 -11 -1
0 -5 25 -9 25 -4 59 -6 75 -3 24 4 27 2 15 -6 -12 -9 -8 -10 15 -5 37 8 45 13
45 25 0 14 -28 11 -33 -3 -3 -10 -7 -10 -17 -1 -19 18 10 21 158 20 76 0 137
4 140 9 4 6 23 11 41 12 19 2 37 5 40 8 8 7 -20 24 -51 31 -16 3 -28 9 -28 14
0 15 42 10 54 -7 7 -9 18 -13 30 -8 12 5 14 9 6 14 -6 4 2 7 18 6 38 -1 64
-25 30 -28 -13 0 -32 0 -43 1 -14 1 -17 -1 -9 -9 8 -8 24 -8 58 1 42 10 45 13
29 26 -16 13 -13 14 29 10 41 -4 48 -2 54 16 3 11 1 23 -6 27 -7 4 -10 16 -7
26 4 17 6 17 12 -4 5 -14 13 -21 21 -18 7 3 16 1 20 -5 3 -5 15 -7 26 -3 15 4
18 3 13 -7 -6 -9 -3 -11 9 -6 10 4 23 7 29 7 7 1 -6 7 -27 15 -22 8 -44 13
-49 12 -5 -1 -11 3 -14 10 -5 14 55 15 63 1 3 -4 12 -8 20 -8 8 0 12 5 9 11
-5 7 9 10 42 8 55 -3 75 5 66 26 -4 11 -1 13 11 9 10 -4 15 -13 12 -20 -7 -19
3 -18 25 2 15 14 34 21 63 23 5 1 6 4 3 8 -4 3 -2 12 3 18 6 7 11 141 11 344
1 317 2 332 21 342 14 7 23 7 34 -2 12 -9 14 -66 14 -335 0 -322 0 -324 20
-312 11 7 16 14 10 16 -6 2 -10 112 -10 308 0 276 -2 306 -18 333 l-18 30 -33
-22 -33 -22 1 -330 c1 -182 -2 -335 -6 -341 -11 -14 -55 -44 -67 -44 -5 0 -1
7 10 15 18 14 16 15 -19 9 -31 -5 -36 -4 -31 9 6 15 54 19 64 5 3 -4 12 -3 20
2 13 8 15 60 17 330 1 197 -1 320 -7 320 -6 0 -11 -127 -13 -322 l-2 -323 -3
346 c-2 394 -6 377 80 377 36 0 46 -3 41 -14 -3 -8 0 -14 6 -14 6 0 11 8 11
17 0 14 2 15 13 4 10 -11 10 -14 0 -18 -7 -3 -13 -11 -13 -19 0 -9 3 -13 8
-11 4 3 6 -127 5 -289 -1 -177 2 -294 8 -294 5 0 9 -5 9 -11 0 -5 -4 -7 -10
-4 -5 3 -10 2 -10 -3 0 -5 9 -12 20 -15 13 -3 18 -1 13 6 -4 6 0 8 10 4 16 -6
34 8 20 16 -5 2 -2 2 5 0 7 -1 18 2 25 7 65 52 70 57 59 64 -7 4 -12 2 -12 -5
0 -11 -28 -38 -41 -39 -3 0 -5 13 -5 29 0 26 3 29 30 29 17 0 37 -5 44 -11 7
-5 15 -7 19 -3 3 3 1 6 -5 6 -7 0 -12 5 -12 11 0 5 4 8 9 5 5 -3 11 3 14 13 3
12 -1 22 -9 25 -8 3 -14 13 -14 22 0 13 6 15 28 11 40 -8 56 6 56 48 0 27 3
34 15 30 30 -12 77 14 91 50 8 19 18 35 22 35 5 0 6 -4 3 -10 -11 -17 7 -11
21 8 9 11 13 13 14 4 0 -16 -90 -102 -107 -102 -7 0 -13 -7 -13 -15 0 -8 -6
-15 -14 -15 -7 0 -16 -8 -19 -19 -3 -14 0 -17 14 -14 11 3 19 12 19 19 0 8 9
14 20 14 10 0 27 12 37 26 10 15 32 41 49 59 16 17 28 37 26 44 -2 6 2 10 10
9 10 -2 13 32 12 182 -1 248 -20 334 -105 461 -68 100 -154 167 -343 263
l-126 63 -16 -59z m50 27 c6 -16 -13 -67 -23 -61 -3 2 -7 -7 -7 -20 -2 -20 2
-24 20 -22 16 2 22 -3 24 -22 2 -19 0 -21 -7 -11 -8 12 -12 12 -25 2 -14 -12
-16 -10 -16 9 0 12 -5 20 -12 18 -11 -4 -16 -22 -21 -77 -1 -15 -9 -26 -22
-28 -11 -2 -26 -5 -33 -7 -7 -1 -19 -15 -27 -30 -17 -31 -20 -49 -5 -26 7 12
9 11 8 -6 -2 -21 -33 -30 -43 -13 -10 16 -33 -16 -37 -52 -4 -30 -8 -34 -36
-35 -17 -1 -29 2 -26 7 3 5 0 9 -5 9 -6 0 -11 -7 -11 -15 0 -9 -7 -15 -16 -13
-10 2 -19 -3 -21 -9 -3 -8 4 -13 17 -13 19 0 21 -2 9 -16 -10 -13 -10 -17 2
-25 10 -7 8 -9 -11 -7 -20 2 -24 8 -22 26 3 23 -4 27 -27 13 -9 -6 -10 -11 -2
-15 24 -15 9 -25 -34 -24 -25 1 -45 4 -45 7 0 11 35 41 48 41 23 0 159 96 222
157 30 29 61 53 68 53 7 0 11 4 7 9 -5 9 25 69 50 101 7 8 15 28 19 43 4 15
11 25 17 22 6 -4 7 3 3 19 -7 28 10 37 20 11z m32 -31 c0 -9 5 -19 13 -22 8
-3 11 0 7 7 -4 6 -1 11 8 11 10 0 13 -6 9 -16 -4 -11 -14 -14 -34 -10 -22 4
-27 2 -22 -9 5 -15 -8 -21 -20 -9 -7 7 23 64 34 64 4 0 6 -7 5 -16z m109 -46
c38 -32 45 -40 40 -49 -4 -5 1 -6 10 -3 13 5 13 9 3 22 -12 14 -10 14 11 3 19
-11 21 -15 10 -23 -10 -7 -8 -8 10 -4 18 4 36 -5 72 -36 26 -22 47 -46 46 -52
-1 -6 4 -10 11 -8 6 1 12 -5 12 -13 0 -8 -6 -15 -12 -16 -10 0 -10 -2 -1 -5 7
-3 9 -13 6 -22 -3 -13 -2 -14 4 -4 8 11 12 10 21 -1 9 -11 6 -13 -16 -13 -23
0 -27 4 -28 30 -1 49 -7 59 -46 88 -21 16 -38 32 -38 37 0 5 -23 7 -51 5 -42
-3 -50 -1 -45 11 8 21 -23 19 -46 -2 -17 -15 -18 -15 -18 5 0 13 6 22 15 22
21 0 19 9 -7 30 l-23 19 22 -4 c12 -2 30 -10 38 -17z m150 -118 c20 -22 8 -28
-14 -7 -11 10 -13 9 -8 -5 4 -10 2 -18 -3 -18 -6 0 -10 11 -10 25 0 30 11 32
35 5z m138 -125 c-2 -8 5 -19 17 -25 14 -8 20 -18 17 -30 -3 -10 3 -27 12 -37
35 -37 32 -48 -17 -51 -40 -3 -44 -1 -32 13 9 11 16 13 24 5 13 -13 26 -13 26
1 0 18 -33 39 -45 29 -7 -6 -11 10 -10 48 0 49 -4 61 -27 84 -14 14 -23 29
-20 33 10 10 61 -55 55 -70z m-922 -152 c-5 -10 -23 -27 -40 -38 -17 -11 -31
-22 -31 -25 0 -4 -15 -4 -33 -2 l-32 4 3 -46 4 -46 -58 1 c-33 1 -51 3 -41 6
18 5 24 23 6 23 -6 0 -19 -5 -30 -10 -11 -7 -19 -7 -19 -1 0 5 14 15 30 23 36
15 38 25 8 30 -17 3 -12 6 19 15 24 6 40 7 37 2 -7 -13 -1 -11 32 6 16 8 25
15 20 15 -5 0 -7 3 -4 6 4 3 16 1 27 -6 24 -12 63 1 41 15 -7 4 -16 2 -20 -5
-5 -8 -10 -8 -14 -2 -6 11 15 22 44 22 9 0 23 7 30 15 17 21 33 19 21 -2z m26
-30 c-2 -38 -2 -38 41 -41 42 -3 42 -3 42 -43 0 -39 0 -39 -40 -39 l-40 0 0
40 0 40 -42 1 c-24 1 -33 4 -20 6 12 2 22 11 22 19 0 11 27 49 37 53 1 1 1
-16 0 -36z m403 -3 l0 -40 -40 0 -40 0 0 40 0 40 40 0 40 0 0 -40z m579 -22
c-1 -18 4 -67 10 -108 12 -77 14 -306 3 -295 -4 3 -6 52 -5 108 2 56 -1 129
-5 162 -6 42 -8 10 -6 -104 2 -90 0 -160 -4 -156 -7 7 -12 405 -5 418 8 15 12
6 12 -25z m-1269 -49 c0 -5 -7 -9 -15 -9 -8 0 -15 -4 -15 -10 0 -5 -8 -10 -17
-11 -15 0 -15 -2 2 -8 13 -6 -4 -8 -47 -8 -38 1 -68 5 -68 9 0 5 -1 11 -2 14
-4 9 123 40 145 36 9 -3 17 -8 17 -13z m-1417 -26 c-7 -2 -19 -2 -25 0 -7 3
-2 5 12 5 14 0 19 -2 13 -5z m1231 -8 c4 -12 -2 -15 -27 -13 -48 2 -57 12 -17
19 19 4 36 7 36 8 1 0 4 -6 8 -14z m-167 -21 c-3 -3 -12 -4 -19 -1 -8 3 -5 6
6 6 11 1 17 -2 13 -5z m-790 -16 c-7 -4 9 -8 35 -8 26 0 49 -4 52 -8 3 -5 -18
-8 -47 -6 -42 3 -46 1 -22 -5 l30 -9 -27 -1 c-16 0 -28 -5 -28 -11 0 -5 -18
-10 -41 -10 -44 0 -46 19 -1 21 24 1 23 3 -8 9 l-35 7 35 2 c37 1 32 16 -10
24 -14 2 -2 4 27 4 29 -1 47 -5 40 -9z m766 -4 c15 -3 27 -9 27 -14 0 -9 -51
-8 -165 4 l-60 6 62 -14 c75 -15 92 -27 38 -26 -22 1 -91 -1 -152 -3 -62 -3
-113 -2 -113 2 0 3 -20 5 -44 3 -24 -2 -70 2 -102 8 -94 20 -43 32 116 27 76
-2 144 -1 150 3 13 8 204 11 243 4z m-627 -15 c4 -8 9 -7 15 2 8 11 11 11 20
-3 5 -10 20 -18 32 -19 61 -2 48 -15 -15 -16 -51 0 -64 2 -43 7 l30 8 -32 1
c-32 1 -48 12 -36 25 10 9 21 7 29 -5z m-61 -29 c-3 -5 -18 -10 -33 -9 -24 0
-25 1 -7 9 28 12 47 12 40 0z m695 0 c22 -7 21 -8 -12 -9 -20 -1 -40 4 -43 9
-7 12 19 12 55 0z m-1020 -290 l0 -40 -40 0 -40 0 0 40 0 40 40 0 40 0 0 -40z
m1680 0 l0 -40 -40 0 -40 0 0 40 0 40 40 0 40 0 0 -40z m910 24 c0 -3 -6 -12
-14 -20 -13 -12 -15 -12 -13 6 1 17 27 31 27 14z m-18 -96 c-7 -7 -12 -8 -12
-2 0 14 12 26 19 19 2 -3 -1 -11 -7 -17z m-1132 -168 l0 -40 -40 0 -40 0 0 40
0 40 40 0 40 0 0 -40z m-720 -160 l0 -40 -40 0 -40 0 0 40 0 40 40 0 40 0 0
-40z m-720 -80 l0 -40 -40 0 -40 0 0 40 0 40 40 0 40 0 0 -40z m1547 -76 c-3
-3 -12 -4 -19 -1 -8 3 -5 6 6 6 11 1 17 -2 13 -5z m-1367 -56 c0 -4 -13 -8
-30 -8 -16 0 -30 4 -30 9 0 5 14 9 30 9 17 -1 30 -5 30 -10z m995 2 c-3 -5
-11 -10 -16 -10 -6 0 -7 5 -4 10 3 6 11 10 16 10 6 0 7 -4 4 -10z m-135 -20
c0 -5 -7 -10 -16 -10 -8 0 -12 5 -9 10 3 6 10 10 16 10 5 0 9 -4 9 -10z"/>
<path d="M9972 6140 c-14 -23 -16 -33 -3 -26 5 4 11 0 13 -6 3 -7 5 2 5 20 0
17 -1 32 -1 32 -1 0 -7 -9 -14 -20z"/>
<path d="M9876 6032 c-3 -6 -1 -14 5 -17 14 -9 20 -2 10 14 -6 8 -11 9 -15 3z"/>
<path d="M9800 5960 c-14 -11 -20 -20 -15 -19 13 0 50 28 44 33 -2 3 -15 -4
-29 -14z"/>
<path d="M9640 5871 c0 -11 31 -24 38 -16 3 3 0 5 -7 5 -7 0 -9 5 -6 10 3 6
-1 10 -9 10 -9 0 -16 -4 -16 -9z"/>
<path d="M10494 5940 c2 -16 20 -14 24 2 3 10 2 10 -6 -1 -7 -9 -11 -10 -15
-2 -4 7 -5 8 -3 1z"/>
<path d="M9208 5713 c6 -2 18 -2 25 0 6 3 1 5 -13 5 -14 0 -19 -2 -12 -5z"/>
<path d="M8465 5630 c-12 -5 1 -6 35 -3 30 3 57 7 59 9 9 8 -75 2 -94 -6z"/>
<path d="M8635 5630 l-60 -7 60 -1 c33 -1 67 3 75 8 17 11 25 11 -75 0z"/>
<path d="M8763 5623 c9 -2 23 -2 30 0 6 3 -1 5 -18 5 -16 0 -22 -2 -12 -5z"/>
<path d="M7613 5680 c0 -47 2 -66 4 -42 2 23 2 61 0 85 -2 23 -4 4 -4 -43z"/>
<path d="M7636 5699 c-3 -34 -6 -88 -6 -120 0 -33 -4 -59 -10 -59 -6 0 -9 -46
-8 -122 l2 -123 6 85 6 85 4 -80 c1 -44 3 -172 4 -285 1 -188 1 -198 -9 -120
l-11 85 1 -120 c0 -76 5 -128 13 -142 6 -12 9 -30 5 -40 -6 -14 -9 -11 -14 17
l-7 35 1 -35 c2 -24 7 -36 20 -38 16 -3 17 27 17 517 0 287 -2 521 -4 521 -2
0 -6 -28 -10 -61z"/>
<path d="M7680 5740 c0 -5 9 -12 20 -15 11 -4 18 -10 15 -15 -3 -4 4 -6 15 -3
11 3 18 9 15 13 -8 12 -65 30 -65 20z"/>
<path d="M7769 5712 c11 -8 9 -11 -10 -15 -17 -3 -13 -5 14 -6 20 0 37 4 37 9
0 6 -4 10 -9 10 -5 0 -18 3 -28 6 -14 5 -15 4 -4 -4z"/>
<path d="M7663 5640 c0 -25 2 -35 4 -22 2 12 2 32 0 45 -2 12 -4 2 -4 -23z"/>
<path d="M10022 5649 c-7 -12 -10 -24 -7 -27 4 -4 11 1 17 11 5 10 19 22 31
27 21 8 21 9 -3 9 -15 1 -30 -7 -38 -20z"/>
<path d="M7613 5160 c0 -25 2 -35 4 -22 2 12 2 32 0 45 -2 12 -4 2 -4 -23z"/>
<path d="M10335 5180 c3 -5 10 -10 16 -10 5 0 9 5 9 10 0 6 -7 10 -16 10 -8 0
-12 -4 -9 -10z"/>
<path d="M10380 5182 c-6 -2 -8 -7 -5 -12 3 -4 -2 -13 -10 -20 -8 -7 -15 -17
-15 -22 0 -7 38 16 82 51 8 6 -35 8 -52 3z"/>
<path d="M10250 5089 c0 -5 5 -7 10 -4 6 3 10 8 10 11 0 2 -4 4 -10 4 -5 0
-10 -5 -10 -11z"/>
<path d="M9840 4860 c0 -5 5 -10 11 -10 5 0 7 5 4 10 -3 6 -8 10 -11 10 -2 0
-4 -4 -4 -10z"/>
<path d="M9870 4860 c0 -5 5 -10 10 -10 6 0 10 5 10 10 0 6 -4 10 -10 10 -5 0
-10 -4 -10 -10z"/>
<path d="M9218 4699 c15 -6 30 -5 40 1 13 7 8 9 -23 9 -35 0 -37 -1 -17 -10z"/>
<path d="M8160 4690 c0 -5 15 -11 33 -14 17 -2 -1 -3 -40 -1 -40 1 -73 -2 -73
-6 0 -5 44 -9 98 -9 53 0 107 -3 120 -6 12 -4 22 -2 22 4 0 6 -19 13 -42 15
l-43 4 43 1 c73 3 45 18 -38 19 -44 1 -80 -2 -80 -7z"/>
<path d="M7978 4673 c7 -3 16 -2 19 1 4 3 -2 6 -13 5 -11 0 -14 -3 -6 -6z"/>
<path d="M8808 4653 c6 -2 18 -2 25 0 6 3 1 5 -13 5 -14 0 -19 -2 -12 -5z"/>
<path d="M7172 4427 c-38 -22 -55 -56 -60 -127 -3 -47 0 -82 12 -118 45 -134
222 -207 271 -111 21 40 19 46 -24 68 l-39 20 -6 -24 c-12 -49 -72 -40 -101
15 -21 41 -21 173 1 194 8 9 21 16 28 16 21 0 56 -40 62 -70 6 -29 26 -40 72
-40 20 0 22 4 17 23 -25 79 -79 139 -145 157 -45 13 -60 12 -88 -3z"/>
<path d="M10025 4413 c-65 -34 -105 -88 -105 -142 0 -46 28 -56 96 -36 61 18
79 14 64 -14 -15 -28 -78 -55 -95 -41 -11 9 -21 8 -45 -6 -32 -20 -37 -33 -18
-52 35 -35 169 17 208 81 24 39 26 100 4 118 -13 11 -26 10 -75 -3 -69 -19
-87 -7 -45 29 29 25 51 29 61 13 8 -13 65 26 65 45 0 28 -68 33 -115 8z"/>
<path d="M9823 4328 l-33 -11 0 -98 c0 -88 -2 -101 -23 -125 -16 -18 -30 -25
-40 -21 -14 5 -17 23 -17 113 0 93 -2 105 -16 100 -9 -3 -27 -9 -40 -12 -24
-6 -24 -8 -24 -128 0 -82 4 -126 12 -134 23 -23 75 -14 113 19 25 22 35 27 35
16 0 -14 5 -14 38 -3 l37 13 3 141 c1 78 -1 142 -5 141 -5 -1 -23 -6 -40 -11z"/>
<path d="M9268 4293 c-13 -3 -18 -15 -18 -43 l0 -38 38 9 c20 5 40 9 45 9 4 0
7 16 7 35 0 32 -3 35 -27 34 -16 -1 -36 -3 -45 -6z"/>
<path d="M9554 4250 c-12 -4 -30 -20 -42 -34 -24 -31 -36 -34 -27 -6 7 23 4
24 -47 9 l-38 -10 0 -139 c0 -77 3 -140 8 -140 4 0 24 5 45 11 l37 10 0 89 c0
86 1 89 31 114 17 14 39 26 50 26 16 0 19 7 19 40 0 42 -2 44 -36 30z"/>
<path d="M7505 4236 c-99 -45 -72 -225 42 -272 39 -17 93 -18 127 -3 28 13 56
64 56 102 0 114 -132 216 -225 173z m107 -73 c13 -12 18 -30 18 -69 0 -29 -3
-59 -6 -68 -9 -23 -50 -19 -68 6 -16 22 -22 102 -10 132 8 21 43 20 66 -1z"/>
<path d="M7780 4057 l0 -145 38 -5 c20 -2 40 -2 45 0 4 2 7 42 7 88 0 79 2 86
25 101 16 10 34 14 51 10 24 -6 25 -5 22 31 -2 31 -7 39 -27 41 -13 2 -36 -6
-52 -17 l-29 -22 0 26 c0 17 -5 25 -17 25 -10 0 -28 3 -40 6 l-23 6 0 -145z"/>
<path d="M9278 4193 l-28 -4 0 -144 0 -144 33 5 c17 3 38 7 45 10 9 2 12 40
12 144 0 154 5 143 -62 133z"/>
<path d="M9169 4173 c-22 -3 -29 -15 -54 -88 -16 -46 -31 -82 -33 -80 -2 2
-16 36 -31 77 -15 40 -32 73 -39 72 -7 -1 -25 -2 -42 -2 -16 -1 -30 -7 -30
-13 0 -13 76 -224 90 -250 7 -12 18 -15 46 -10 l36 6 49 139 c51 144 54 157
42 155 -5 -1 -20 -4 -34 -6z"/>
<path d="M8050 4138 c-43 -29 -60 -61 -60 -113 0 -91 65 -155 157 -155 47 0
58 4 91 34 35 32 37 38 37 94 0 46 -5 67 -21 88 -33 45 -70 67 -121 71 -39 4
-55 0 -83 -19z m112 -55 c27 -24 26 -123 -2 -148 -18 -16 -21 -16 -44 -2 -50
33 -41 167 12 167 8 0 24 -7 34 -17z"/>
<path d="M8332 3998 l3 -143 40 0 40 0 3 103 c3 98 4 103 27 114 45 20 55 -1
55 -118 l0 -104 45 0 45 0 0 98 c0 150 -18 192 -84 192 -29 0 -76 -19 -76 -32
0 -4 -4 -8 -10 -8 -5 0 -10 9 -10 20 0 17 -7 20 -40 20 l-41 0 3 -142z"/>
<path d="M8693 4120 c-28 -17 -53 -47 -53 -64 0 -11 79 -6 85 5 12 19 55 30
76 19 36 -20 21 -37 -43 -50 -110 -23 -160 -99 -103 -155 30 -31 86 -33 133
-5 26 16 32 17 32 5 0 -11 12 -15 45 -15 l45 0 0 99 c0 106 -12 156 -40 171
-33 18 -142 12 -177 -10z m127 -152 c0 -31 -28 -58 -60 -58 -50 0 -46 50 5 70
37 15 55 11 55 -12z"/>
<path d="M7100 3983 c0 -5 25 -99 57 -211 45 -158 62 -203 76 -208 11 -3 23
-2 27 3 10 10 123 324 118 328 -2 2 -11 5 -22 7 -15 2 -26 -19 -66 -132 -27
-74 -50 -128 -53 -120 -3 8 -25 83 -48 165 -38 135 -57 175 -81 175 -4 0 -8
-3 -8 -7z"/>
<path d="M7443 3773 c-24 -5 -56 -41 -47 -55 8 -13 34 -9 51 8 12 11 26 14 52
9 40 -7 65 -28 76 -63 6 -22 6 -23 -57 -16 -90 9 -128 -11 -128 -65 0 -77 86
-131 156 -97 32 15 33 14 36 -7 2 -12 11 -23 21 -25 17 -4 18 4 15 116 -3 103
-6 123 -23 142 -35 39 -101 62 -152 53z m128 -159 c14 -8 11 -47 -7 -72 -20
-29 -85 -31 -114 -2 -46 46 -6 95 68 86 24 -3 48 -8 53 -12z"/>
<path d="M8224 3745 c-9 -23 3 -45 26 -45 25 0 28 45 4 54 -22 8 -24 8 -30 -9z"/>
<path d="M7727 3699 c-46 -27 -62 -134 -29 -199 22 -44 75 -80 119 -80 59 0
112 78 60 88 -10 2 -17 -3 -17 -12 0 -9 -11 -23 -24 -31 -45 -29 -96 10 -110
84 -8 45 10 108 35 122 32 17 76 -6 91 -47 8 -22 19 -34 30 -34 38 0 6 80 -42
105 -33 17 -87 19 -113 4z"/>
<path d="M7994 3661 c-75 -47 -71 -197 8 -254 38 -28 101 -27 131 2 27 24 41
60 26 63 -25 4 -31 1 -42 -22 -22 -44 -87 -39 -112 10 -27 52 -16 149 19 172
31 21 82 -7 99 -54 6 -18 32 -24 41 -10 2 4 -2 21 -9 39 -26 62 -106 89 -161
54z"/>
<path d="M8225 3648 c-2 -7 -3 -71 -2 -143 2 -126 3 -130 25 -133 22 -3 22 -3
22 136 0 118 -2 141 -16 146 -22 8 -24 8 -29 -6z"/>
<path d="M8357 3643 c-4 -3 -7 -66 -7 -140 l0 -133 25 0 c25 0 25 0 25 95 0
91 1 97 27 121 20 19 36 24 62 22 l36 -3 5 -120 c5 -115 6 -120 28 -123 22 -3
22 -2 22 118 0 117 -1 122 -26 147 -21 21 -32 25 -66 20 -22 -3 -51 -16 -64
-28 l-24 -22 0 26 c0 20 -5 27 -18 27 -10 0 -22 -3 -25 -7z"/>
<path d="M8704 3631 c-61 -37 -82 -152 -39 -217 9 -14 33 -32 52 -41 51 -21
99 -9 142 35 35 35 35 37 13 40 -15 2 -30 -5 -43 -22 -29 -37 -89 -37 -118 0
-12 15 -21 37 -21 50 0 23 3 24 63 24 34 0 79 3 101 7 l38 6 -5 41 c-12 84
-107 124 -183 77z m101 -17 c17 -7 50 -62 42 -71 -3 -2 -39 -7 -81 -10 -67 -5
-76 -4 -76 11 0 10 13 31 29 47 29 28 53 35 86 23z"/>
</g>
</svg>
